<?xml version="1.0" encoding="UTF-8" standalone="no"?><!DOCTYPE svg PUBLIC "-//W3C//DTD SVG 1.1//EN" "http://www.w3.org/Graphics/SVG/1.1/DTD/svg11.dtd"><svg width="100%" height="100%" viewBox="0 0 1834 2250" version="1.1" xmlns="http://www.w3.org/2000/svg" xmlns:xlink="http://www.w3.org/1999/xlink" xml:space="preserve" xmlns:serif="http://www.serif.com/" style="fill-rule:evenodd;clip-rule:evenodd;stroke-linecap:square;stroke-miterlimit:1;"><rect id="Artboard1" x="0" y="0" width="1833.52" height="2250" style="fill:none;"/><clipPath id="_clip1"><rect x="0" y="0" width="1833.52" height="2250"/></clipPath><g clip-path="url(#_clip1)"><rect x="0" y="-10.067" width="1837.67" height="1131.06" style="fill:#d0d2d3;fill-opacity:0.3;"/><path d="M106.14,1122.54l-0,-1118.62" style="fill:none;stroke:#fff;stroke-width:18.75px;"/><path d="M1730.69,1120.52l0,1125.57" style="fill:none;stroke:#bcbec0;stroke-width:18.75px;"/><path d="M1439.65,1672.28c15.521,0.232 28.31,-12.181 28.541,-27.702c0.232,-15.521 -12.182,-28.31 -27.703,-28.541c-15.52,-0.232 -28.309,12.182 -28.541,27.702c-0.231,15.521 12.182,28.31 27.703,28.541Z" style="fill:#bcbec0;"/><path d="M1423.2,1643.91c-235.674,-3.513 -1317.06,-19.631 -1317.06,-19.631l-0,-493.761" style="fill:none;stroke:#bcbec0;stroke-width:18.75px;"/><circle cx="395.72" cy="585.444" r="28.125" style="fill:#fff;"/><path d="M412.595,585.444l1318.09,-0l0,526.137" style="fill:none;stroke:#fff;stroke-width:18.75px;"/><path d="M291.887,627.845c9.851,0 18.471,-3.694 25.859,-11.082c7.389,-7.389 11.083,-15.785 11.083,-25.188c0,-8.956 -3.023,-17.128 -9.068,-24.516c-6.045,-7.388 -13.321,-11.306 -21.829,-11.754c1.343,-11.643 5.262,-21.718 11.754,-30.225c6.493,-8.508 15.785,-17.016 27.875,-25.524l-14.105,-24.852c-18.807,9.851 -34.927,25.412 -48.361,46.681c-13.433,21.27 -20.15,42.652 -20.15,64.145c0,12.538 3.694,22.725 11.083,30.561c7.388,7.836 16.008,11.754 25.859,11.754Zm-104.781,0c9.851,0 18.359,-3.694 25.524,-11.082c7.164,-7.389 10.747,-15.785 10.747,-25.188c-0,-8.956 -3.023,-17.128 -9.068,-24.516c-6.045,-7.388 -13.321,-11.306 -21.829,-11.754c1.791,-11.643 5.933,-21.718 12.426,-30.225c6.492,-8.508 15.784,-17.016 27.874,-25.524l-14.105,-24.852c-18.807,9.851 -34.815,25.412 -48.025,46.681c-13.209,21.27 -19.814,42.652 -19.814,64.145c0,12.538 3.582,22.725 10.747,30.561c7.164,7.836 15.672,11.754 25.523,11.754Z" style="fill:#fff;"/><path d="M1544.46,1517.48c-9.851,0 -18.471,3.695 -25.86,11.083c-7.388,7.388 -11.082,15.784 -11.082,25.188c-0,8.955 3.022,17.127 9.067,24.516c6.045,7.388 13.322,11.306 21.83,11.754c-1.344,11.642 -5.262,21.717 -11.755,30.225c-6.492,8.508 -15.784,17.016 -27.874,25.524l14.105,24.852c18.807,-9.852 34.927,-25.412 48.361,-46.682c13.433,-21.269 20.15,-42.651 20.15,-64.144c-0,-12.538 -3.694,-22.725 -11.083,-30.561c-7.388,-7.836 -16.008,-11.755 -25.859,-11.755Zm104.781,0c-9.852,0 -18.359,3.695 -25.524,11.083c-7.164,7.388 -10.747,15.784 -10.747,25.188c0,8.955 3.023,17.127 9.068,24.516c6.045,7.388 13.321,11.306 21.829,11.754c-1.791,11.642 -5.933,21.717 -12.426,30.225c-6.493,8.508 -15.784,17.016 -27.874,25.524l14.105,24.852c18.807,-9.852 34.815,-25.412 48.024,-46.682c13.21,-21.269 19.815,-42.651 19.815,-64.144c-0,-12.538 -3.582,-22.725 -10.747,-30.561c-7.164,-7.836 -15.672,-11.755 -25.523,-11.755Z" style="fill:#bbbdc0;"/></g></svg>